# xmcd
#
# Track frame offsets:
#       150
#       14514
#       33204
#       57351
#       69114
#       83913
#       105104
#       120330
#       135326
#       151749
#       164216
#       178757
#       196255
#
# Disc length: 2814 seconds
#
# Revision: 0
# Processed by: cddbd v1.5.1PL0 Copyright (c) Steve Scherf et al.
# Submitted via: WaveLab 4.01
#
DISCID=990afc0d
DTITLE=Katie Targett Adams - K:T:A
DYEAR=2004
DGENRE=
TTITLE0=Imagine
TTITLE1=On Your Shore
TTITLE2=Caledonia
TTITLE3=My Love Is Like A Red, Red Rose
TTITLE4=Eriskay Love Lilt
TTITLE5=Angel
TTITLE6=Patience Of Angels
TTITLE7=In My Life
TTITLE8=Come By The Hills
TTITLE9=Far Island
TTITLE10=Ca' The Yowes Tae The Knowes
TTITLE11=Scotland The Brave
TTITLE12=Bonus Track: New York, New York
EXTD=
EXTT0=
EXTT1=
EXTT2=
EXTT3=
EXTT4=
EXTT5=
EXTT6=
EXTT7=
EXTT8=
EXTT9=
EXTT10=
EXTT11=
EXTT12=
PLAYORDER=
